HIERARCHY
ROOT Hips
{
	OFFSET	0.00	0.00	0.00
	CHANNELS 6 Xposition Yposition Zposition Zrotation Xrotation Yrotation
	JOINT LeftUpperLeg
	{
		OFFSET	 0.091245	-0.066564	-0.000554
		CHANNELS 3 Zrotation Xrotation Yrotation
		JOINT LeftLowerLeg
		{
			OFFSET	 0.002447	-0.463436	-0.005172
			CHANNELS 3 Zrotation Xrotation Yrotation
			JOINT LeftFoot
			{
				OFFSET	-0.002447	-0.420480	-0.020576
				CHANNELS 3 Zrotation Xrotation Yrotation
				JOINT LeftToes
				{
					OFFSET	 0.003734	-0.104922	 0.126407
					CHANNELS 3 Zrotation Xrotation Yrotation
					End Site
					{
						OFFSET	 0.000000	 0.000000	 0.059955
					}
				}
			}
		}
	}
	JOINT RightUpperLeg
	{
		OFFSET	-0.091245	-0.066564	-0.000554
		CHANNELS 3 Zrotation Xrotation Yrotation
		JOINT RightLowerLeg
		{
			OFFSET	-0.002447	-0.463436	-0.005146
			CHANNELS 3 Zrotation Xrotation Yrotation
			JOINT RightFoot
			{
				OFFSET	 0.002447	-0.420479	-0.020602
				CHANNELS 3 Zrotation Xrotation Yrotation
				JOINT RightToes
				{
					OFFSET	-0.003734	-0.104922	 0.126407
					CHANNELS 3 Zrotation Xrotation Yrotation
					End Site
					{
						OFFSET	-0.000000	 0.000000	 0.059955
					}
				}
			}
		}
	}
	JOINT Spine
	{
		OFFSET	 0.000000	 0.099235	-0.012273
		CHANNELS 3 Zrotation Xrotation Yrotation
		JOINT Chest
		{
			OFFSET	-0.000001	 0.116455	-0.014223
			CHANNELS 3 Zrotation Xrotation Yrotation
			JOINT UpperChest
			{
				OFFSET	 0.000001	 0.133602	-0.016265
				CHANNELS 3 Zrotation Xrotation Yrotation
				JOINT LeftShoulder
				{
					OFFSET	 0.061058	 0.091105	 0.007056
					CHANNELS 3 Zrotation Xrotation Yrotation
					JOINT LeftUpperArm
					{
						OFFSET	 0.133942	-0.002659	-0.026009
						CHANNELS 3 Zrotation Xrotation Yrotation
						JOINT LeftLowerArm
						{
							OFFSET	 0.274047	 0.000000	 0.000000
							CHANNELS 3 Zrotation Xrotation Yrotation
							JOINT LeftHand
							{
								OFFSET	 0.276145	 0.000000	 0.000000
								CHANNELS 3 Zrotation Xrotation Yrotation
								End Site
								{
									OFFSET	 0.165687	 0.000000	 0.000000
								}
							}
						}
					}
				}
				JOINT Neck
				{
					OFFSET	 0.000000	 0.150325	 0.007929
					CHANNELS 3 Zrotation Xrotation Yrotation
					JOINT Head
					{
						OFFSET	 0.000000	 0.103218	 0.031424
						CHANNELS 3 Zrotation Xrotation Yrotation
						End Site
						{
							OFFSET	 0.000000	 0.061931	 0.018855
						}
					}
				}
				JOINT RightShoulder
				{
					OFFSET	-0.061057	 0.091105	 0.007056
					CHANNELS 3 Zrotation Xrotation Yrotation
					JOINT RightUpperArm
					{
						OFFSET	-0.133943	-0.002660	-0.026009
						CHANNELS 3 Zrotation Xrotation Yrotation
						JOINT RightLowerArm
						{
							OFFSET	-0.274047	 0.000000	 0.000000
							CHANNELS 3 Zrotation Xrotation Yrotation
							JOINT RightHand
							{
								OFFSET	-0.276145	 0.000000	 0.000000
								CHANNELS 3 Zrotation Xrotation Yrotation
								End Site
								{
									OFFSET	-0.165687	 0.000000	 0.000000
								}
							}
						}
					}
				}
			}
		}
	}
}
MOTION
Frames:    15
Frame Time: 0.03333334
 0.308680	 1.039460	-0.657690	-6.499474	 3.104017	 19.372750	 0.288538	-13.627510	-0.481895	 1.415104	 27.674240	-0.348695	 5.987649	-17.031240	 17.851630	 0.000005	 0.015295	 0.210898	-10.498260	 5.079259	-32.282910	 0.004505	 0.088981	-0.000413	 8.421024	 13.075360	-4.449048	-0.000220	-5.874985	 0.000417	-0.807257	 0.418094	 0.379163	 0.000000	 0.000000	 0.000000	-1.619897	 0.831004	 0.764855	-1.123447	 0.243423	 20.095910	-74.432230	 5.420115	 3.616205	-2.517669	 9.464352	-16.945360	 42.967510	 25.716490	-28.569420	 10.282900	-1.663791	-6.931583	 9.912028	-1.905848	-6.885983	-1.028874	 2.234648	-8.656346	 80.952170	-13.740250	 35.634900	 16.142320	 11.220650	 69.696740	-40.467810	-16.410430	 12.718190
 0.306700	 1.040400	-0.660780	-6.261878	 3.784455	 20.961380	-0.342635	-14.283660	-1.656499	 1.311172	 27.071620	-0.316421	 5.873823	-16.394270	 17.315300	 0.000056	 0.066854	 0.204038	-10.742710	 4.737555	-34.030820	 0.004575	 0.088837	 0.000389	 9.215948	 13.168910	-5.152127	 0.000005	-6.400149	-0.000192	-0.717603	 0.598648	 0.482753	 0.000000	 0.000000	 0.000000	-1.444051	 1.193169	 0.975146	-1.553991	-0.178676	 20.004340	-74.240200	 5.503527	 2.472617	-3.354950	 9.977698	-18.497550	 40.733150	 25.868080	-28.308970	 10.054170	-2.511122	-7.346088	 9.865110	-2.900589	-7.494313	-1.311131	 2.182747	-8.332916	 82.173420	-14.285690	 35.884120	 14.923880	 11.008850	 69.041690	-40.774390	-16.134590	 13.867320
 0.305280	 1.041050	-0.664050	-6.116460	 4.436499	 22.324360	-0.936320	-14.935710	-2.588686	 1.301005	 26.551250	-0.307863	 5.690806	-15.849090	 16.774030	 0.000559	 0.021424	 0.197924	-10.914030	 4.354901	-35.788440	 0.004348	 0.088848	 0.000297	 9.517019	 12.853530	-5.530534	 0.000841	-5.880954	-0.000305	-0.621243	 0.775796	 0.601392	 0.000000	 0.000000	 0.000000	-1.251431	 1.545967	 1.213005	-1.961645	-0.638065	 19.772410	-73.895900	 5.990322	 0.994631	-3.975322	 10.643350	-20.074510	 37.349530	 26.161300	-27.148640	 10.099280	-3.520885	-7.826964	 9.887336	-3.905567	-8.006215	-1.307171	 2.129290	-8.091517	 83.018390	-13.694710	 36.160250	 13.255420	 9.826022	 67.785570	-41.028480	-15.811180	 14.976270
 0.305280	 1.041050	-0.664050	-6.116460	 4.436499	 22.324360	-0.936320	-14.935710	-2.588686	 1.301005	 26.551250	-0.307863	 5.690806	-15.849090	 16.774030	 0.000559	 0.021424	 0.197924	-10.914030	 4.354901	-35.788440	 0.004348	 0.088848	 0.000297	 9.517019	 12.853530	-5.530534	 0.000841	-5.880954	-0.000305	-0.621243	 0.775796	 0.601392	 0.000000	 0.000000	 0.000000	-1.251431	 1.545967	 1.213005	-1.961645	-0.638065	 19.772410	-73.895900	 5.990322	 0.994631	-3.975322	 10.643350	-20.074510	 37.349530	 26.161300	-27.148640	 10.099280	-3.520885	-7.826964	 9.887336	-3.905567	-8.006215	-1.307171	 2.129290	-8.091517	 83.018390	-13.694710	 36.160250	 13.255420	 9.826022	 67.785570	-41.028480	-15.811180	 14.976270
 0.303360	 1.041440	-0.667070	-6.172624	 5.093868	 23.613350	-1.356176	-15.737220	-3.395786	 1.375131	 26.234140	-0.322187	 5.455832	-15.479000	 16.187680	 0.000260	 0.057652	 0.188207	-10.912010	 3.883804	-37.758790	 0.003475	 0.078889	 0.000209	 9.781063	 12.638210	-5.608166	-0.000033	-5.613315	-0.000138	-0.542760	 0.905485	 0.693193	 0.000000	 0.000000	 0.000000	-1.097246	 1.805899	 1.395812	-2.154250	-1.129124	 19.404000	-73.545300	 6.700196	-0.811929	-4.590541	 11.221780	-21.110150	 35.398390	 28.130200	-25.577510	 10.158670	-4.328515	-8.333489	 9.988241	-4.613866	-8.474545	-1.345528	 2.028709	-7.765986	 83.452110	-12.717170	 36.460320	 12.180010	 8.189687	 65.394550	-41.405050	-16.207010	 15.367630
 0.303070	 1.041540	-0.669470	-6.295757	 5.405067	 24.169710	-1.580666	-16.236240	-4.342548	 1.207379	 26.190320	-0.281610	 5.554573	-15.207410	 16.538570	-0.000615	-0.018479	 0.190600	-10.928470	 3.578817	-38.584000	 0.003729	 0.088879	 0.000164	 9.934768	 12.599790	-5.489185	 0.000294	-5.351165	-0.000088	-0.274357	 1.036423	 0.747755	 0.000000	 0.000000	 0.000000	-0.564133	 2.071419	 1.502353	-2.334435	-1.393622	 19.364690	-73.261940	 7.096741	-2.133913	-5.623046	 11.417360	-21.316730	 34.967470	 28.214220	-25.432970	 10.346660	-4.771437	-8.448620	 9.799486	-5.042176	-8.527227	-1.197593	 2.170961	-7.402113	 83.535060	-11.761240	 36.956940	 11.425360	 7.276031	 62.850930	-42.090730	-16.831100	 15.527150
 0.302430	 1.041590	-0.672330	-6.579990	 5.824129	 24.739240	-1.653963	-16.957280	-4.637044	 1.232478	 26.175910	-0.287616	 5.473518	-15.000140	 16.274210	-0.000487	-0.205444	 0.191638	-10.883560	 3.107264	-38.692700	 0.004365	 0.079771	 0.000342	 10.211860	 12.572310	-5.796633	 0.000371	-5.296107	 0.000538	 0.004855	 1.153853	 0.906389	 0.000000	 0.000000	 0.000000	-0.007496	 2.310539	 1.817140	-2.767319	-1.558919	 19.477660	-72.777430	 7.062563	-3.945260	-7.669515	 12.144730	-21.298260	 35.705670	 27.562080	-26.032580	 10.188700	-5.343219	-8.239716	 9.597735	-5.621836	-8.534058	-1.428505	 2.101234	-6.828667	 84.331060	-10.729910	 36.666130	 9.726738	 7.216751	 58.414260	-42.686440	-16.673790	 17.436410
 0.302620	 1.041510	-0.675570	-6.679451	 6.475007	 24.867600	-1.874588	-17.645010	-4.107876	 1.299600	 25.917310	-0.300875	 5.216548	-15.007600	 15.848260	 0.000863	 0.034330	 0.157023	-11.182990	 2.361639	-39.321170	 0.004094	 0.079785	 0.000339	 10.473130	 12.853590	-5.516442	 0.000071	-5.710496	-0.000373	 0.216962	 1.240037	 1.031723	 0.000000	 0.000000	 0.000000	 0.412356	 2.490657	 2.060257	-3.121346	-1.861864	 19.453550	-72.768550	 7.045802	-5.333786	-9.337659	 13.030860	-21.458730	 35.774250	 26.372770	-26.069400	 9.839759	-5.982432	-8.058962	 9.389498	-6.189884	-8.290047	-1.599803	 2.129502	-6.320029	 84.537400	-8.974839	 37.273430	 7.914298	 6.164530	 52.625700	-41.879380	-16.240320	 19.726980
 0.303100	 1.041480	-0.677680	-6.594841	 6.889180	 24.630840	-2.126673	-17.980370	-3.959727	 1.198855	 25.709310	-0.275096	 5.443640	-14.750930	 15.996660	 0.000213	-0.085055	 0.168697	-11.526290	 1.858091	-39.878480	 0.004164	 0.088206	 0.000031	 10.408070	 13.068490	-4.904981	-0.000334	-5.863678	 0.000316	 0.311245	 1.356944	 1.177283	 0.000000	 0.000000	 0.000000	 0.594312	 2.725262	 2.351236	-3.616545	-2.008164	 19.494520	-72.546420	 7.549337	-6.308092	-10.856340	 12.899940	-22.149090	 36.161000	 25.701330	-26.593270	 9.539379	-6.410002	-7.817465	 9.320686	-6.683925	-8.077945	-1.863536	 2.159191	-5.800367	 84.865570	-7.463373	 37.611160	 7.103241	 5.307551	 47.314870	-41.356900	-17.716650	 19.943380
 0.303680	 1.041440	-0.679890	-6.521658	 7.191275	 24.330610	-2.324270	-18.271460	-3.551257	 1.200129	 25.604580	-0.273799	 5.555653	-14.586300	 16.027830	-0.000511	-0.135005	 0.169857	-11.795150	 1.434400	-39.446220	 0.003666	 0.074146	-0.000607	 10.326330	 13.026560	-5.131955	-0.000482	-5.663335	 0.000167	 0.420208	 1.579220	 1.351595	 0.000000	 0.000000	 0.000000	 0.801962	 3.175949	 2.698356	-3.642339	-2.131959	 19.593980	-72.310500	 8.040942	-7.367395	-12.919850	 14.079400	-24.856590	 37.610710	 24.551810	-27.842690	 9.517900	-6.872992	-7.628627	 9.256372	-7.368041	-7.910934	-1.567228	 2.644764	-5.195643	 84.492340	-5.299082	 37.800530	 7.343484	 2.756390	 39.738290	-40.211170	-20.701840	 18.887780
 0.304220	 1.041100	-0.682300	-6.719635	 7.723414	 24.157240	-2.459868	-18.999660	-3.431129	 1.196678	 25.717400	-0.275074	 5.749157	-14.582920	 16.286390	 0.000923	 0.010885	 0.168454	-11.911120	 0.710103	-39.492460	 0.003438	 0.088756	 0.000991	 10.178390	 12.929700	-5.047956	-0.000413	-5.290140	 0.000465	 0.566394	 1.630358	 1.429810	 0.000000	 0.000000	 0.000000	 1.097531	 3.281710	 2.850752	-3.431115	-2.551088	 19.534980	-72.231700	 7.941464	-9.033790	-14.795830	 15.863980	-27.977270	 37.553260	 23.188790	-29.276760	 9.375754	-7.705967	-7.457749	 9.055221	-7.823065	-7.612009	-1.598902	 2.656050	-4.698493	 84.622450	-3.284551	 37.761090	 6.521865	 0.488874	 33.326760	-38.506940	-19.592950	 17.199010
 0.304220	 1.041100	-0.682300	-6.719635	 7.723414	 24.157240	-2.459868	-18.999660	-3.431129	 1.196678	 25.717400	-0.275074	 5.749157	-14.582920	 16.286390	 0.000923	 0.010885	 0.168454	-11.911120	 0.710103	-39.492460	 0.003438	 0.088756	 0.000991	 10.178390	 12.929700	-5.047956	-0.000413	-5.290140	 0.000465	 0.566394	 1.630358	 1.429810	 0.000000	 0.000000	 0.000000	 1.097531	 3.281710	 2.850752	-3.431115	-2.551088	 19.534980	-72.231700	 7.941464	-9.033790	-14.795830	 15.863980	-27.977270	 37.553260	 23.188790	-29.276760	 9.375754	-7.705967	-7.457749	 9.055221	-7.823065	-7.612009	-1.598902	 2.656050	-4.698493	 84.622450	-3.284551	 37.761090	 6.521865	 0.488874	 33.326760	-38.506940	-19.592950	 17.199010
 0.306080	 1.040160	-0.685120	-7.026987	 8.089504	 23.532690	-2.331783	-19.970750	-2.662689	 1.152771	 26.559730	-0.273450	 6.136103	-14.777800	 16.443230	 0.000589	-0.004832	 0.179260	-11.958730	-0.000096	-39.578530	 0.002300	 0.063148	 0.000200	 10.134280	 13.034250	-4.450165	-0.000665	-4.855820	-0.000446	 0.796173	 1.740926	 1.436791	 0.000000	 0.000000	 0.000000	 1.554372	 3.505285	 2.856070	-2.705030	-2.950014	 19.134650	-72.061540	 6.787107	-14.186960	-20.597850	 18.996220	-33.904050	 35.914540	 20.191250	-31.664160	 9.264188	-8.172507	-6.792474	 9.052788	-8.208646	-6.749407	-1.653100	 3.266844	-3.853336	 86.609920	 0.486473	 36.853140	 2.760513	-1.837481	 21.862000	-33.641370	-13.512740	 1.684813
 0.306080	 1.040160	-0.685120	-7.026987	 8.089504	 23.532690	-2.331783	-19.970750	-2.662689	 1.152771	 26.559730	-0.273450	 6.136103	-14.777800	 16.443230	 0.000589	-0.004832	 0.179260	-11.958730	-0.000096	-39.578530	 0.002300	 0.063148	 0.000200	 10.134280	 13.034250	-4.450165	-0.000665	-4.855820	-0.000446	 0.796173	 1.740926	 1.436791	 0.000000	 0.000000	 0.000000	 1.554372	 3.505285	 2.856070	-2.705030	-2.950014	 19.134650	-72.061540	 6.787107	-14.186960	-20.597850	 18.996220	-33.904050	 35.914540	 20.191250	-31.664160	 9.264188	-8.172507	-6.792474	 9.052788	-8.208646	-6.749407	-1.653100	 3.266844	-3.853336	 86.609920	 0.486473	 36.853140	 2.760513	-1.837481	 21.862000	-33.641370	-13.512740	 1.684813
 0.307190	 1.039640	-0.685800	-7.177659	 8.049657	 23.087860	-2.054429	-20.260260	-2.033904	 1.079628	 27.092390	-0.260624	 6.506950	-14.923560	 16.295910	-0.000153	-0.055799	 0.199389	-11.916640	-0.158216	-39.115280	 0.003347	 0.079946	-0.000347	 10.171490	 13.128430	-4.367695	-0.000238	-4.804651	 0.000077	 0.812716	 1.758048	 1.361154	 0.000000	 0.000000	 0.000000	 1.586536	 3.542925	 2.703062	-2.808545	-3.291377	 18.920450	-71.549320	 6.897584	-17.164360	-22.492510	 20.085980	-37.588630	 34.776200	 18.944030	-32.083690	 9.483774	-8.275517	-6.658585	 9.472939	-8.285817	-6.502162	-1.691549	 3.601592	-3.709428	 87.305500	 2.239402	 35.034240	 2.878019	-6.113608	 17.651560	-29.788220	-13.350150	-5.406183
